<svg xmlns="http://www.w3.org/2000/svg" version="1.1" xmlns:xlink="http://www.w3.org/1999/xlink" xmlns:svgjs="http://svgjs.dev/svgjs" viewBox="0 0 13.172913000563657 3.0254944757127986"><g transform="matrix(1,0,0,1,2.9736101853000214,0.5445722378563994)"><g><path d=" M 0.183 0.00749999999999984 L 0.5985 0.00749999999999984 Q 0.762 0.00749999999999984 0.88875 0.07499999999999984 Q 1.0155 0.14249999999999985 1.086 0.2617499999999998 Q 1.1565 0.3809999999999999 1.1565 0.5324999999999999 Q 1.1565 0.6839999999999999 1.086 0.8032499999999998 Q 1.0155 0.9224999999999999 0.88875 0.9899999999999999 Q 0.762 1.0574999999999999 0.5985 1.0574999999999999 L 0.183 1.0574999999999999 L 0.183 0.00749999999999984 M 0.5925 0.9884999999999999 Q 0.738 0.9884999999999999 0.849 0.9307499999999999 Q 0.96 0.8729999999999999 1.02 0.7694999999999999 Q 1.08 0.6659999999999999 1.08 0.5324999999999999 Q 1.08 0.3989999999999999 1.02 0.2954999999999999 Q 0.96 0.19199999999999984 0.849 0.13424999999999987 Q 0.738 0.0764999999999999 0.5925 0.0764999999999999 L 0.2595 0.0764999999999999 L 0.2595 0.9884999999999999 L 0.5925 0.9884999999999999 M 1.4369831542968752 0.00749999999999984 L 1.5134831542968752 0.00749999999999984 L 1.5134831542968752 1.0574999999999999 L 1.4369831542968752 1.0574999999999999 L 1.4369831542968752 0.00749999999999984 M 2.06020751953125 0.9959999999999999 Q 1.9364575195312503 0.9269999999999998 1.8652075195312503 0.8054999999999999 Q 1.7939575195312503 0.6839999999999999 1.7939575195312503 0.5324999999999999 Q 1.7939575195312503 0.3809999999999999 1.8652075195312503 0.25949999999999984 Q 1.9364575195312503 0.1379999999999999 2.06020751953125 0.06899999999999984 Q 2.1839575195312504 -2.220446049250313e-16 2.33845751953125 -2.220446049250313e-16 Q 2.4524575195312504 -2.220446049250313e-16 2.54845751953125 0.03674999999999984 Q 2.64445751953125 0.0734999999999999 2.71195751953125 0.14549999999999985 L 2.6639575195312504 0.19499999999999984 Q 2.5379575195312505 0.0704999999999999 2.34145751953125 0.0704999999999999 Q 2.2094575195312505 0.0704999999999999 2.1014575195312504 0.13049999999999984 Q 1.9934575195312503 0.1904999999999999 1.9319575195312502 0.2962499999999999 Q 1.8704575195312503 0.4019999999999999 1.8704575195312503 0.5324999999999999 Q 1.8704575195312503 0.6629999999999998 1.9319575195312502 0.7687499999999998 Q 1.9934575195312503 0.8744999999999998 2.1014575195312504 0.9344999999999999 Q 2.2094575195312505 0.9944999999999999 2.34145751953125 0.9944999999999999 Q 2.5364575195312504 0.9944999999999999 2.6639575195312504 0.8684999999999998 L 2.71195751953125 0.9179999999999999 Q 2.64445751953125 0.9899999999999999 2.5477075195312504 1.0274999999999999 Q 2.4509575195312503 1.065 2.33845751953125 1.065 Q 2.1839575195312504 1.065 2.06020751953125 0.9959999999999999 M 3.1710043945312503 0.0764999999999999 L 2.79300439453125 0.0764999999999999 L 2.79300439453125 0.00749999999999984 L 3.6255043945312506 0.00749999999999984 L 3.6255043945312506 0.0764999999999999 L 3.2475043945312505 0.0764999999999999 L 3.2475043945312505 1.0574999999999999 L 3.1710043945312503 1.0574999999999999 L 3.1710043945312503 0.0764999999999999 M 3.8294868164062503 0.00749999999999984 L 3.9059868164062506 0.00749999999999984 L 3.9059868164062506 1.0574999999999999 L 3.8294868164062503 1.0574999999999999 L 3.8294868164062503 0.00749999999999984 M 4.453461181640625 0.9952499999999999 Q 4.328961181640625 0.9254999999999999 4.257711181640625 0.8039999999999998 Q 4.186461181640625 0.6824999999999999 4.186461181640625 0.5324999999999999 Q 4.186461181640625 0.38249999999999984 4.257711181640625 0.2609999999999999 Q 4.328961181640625 0.13949999999999985 4.453461181640625 0.06974999999999987 Q 4.577961181640625 -2.220446049250313e-16 4.732461181640625 -2.220446049250313e-16 Q 4.8869611816406255 -2.220446049250313e-16 5.011461181640625 0.06899999999999984 Q 5.135961181640625 0.1379999999999999 5.207211181640625 0.25949999999999984 Q 5.278461181640625 0.3809999999999999 5.278461181640625 0.5324999999999999 Q 5.278461181640625 0.6839999999999999 5.207211181640625 0.8054999999999999 Q 5.135961181640625 0.9269999999999998 5.011461181640625 0.9959999999999999 Q 4.8869611816406255 1.065 4.732461181640625 1.065 Q 4.577961181640625 1.065 4.453461181640625 0.9952499999999999 M 4.970961181640625 0.9344999999999999 Q 5.077461181640626 0.8744999999999998 5.138961181640625 0.7687499999999998 Q 5.200461181640625 0.6629999999999998 5.200461181640625 0.5324999999999999 Q 5.200461181640625 0.4019999999999999 5.138961181640625 0.2962499999999999 Q 5.077461181640626 0.1904999999999999 4.970961181640625 0.13049999999999984 Q 4.864461181640626 0.0704999999999999 4.732461181640625 0.0704999999999999 Q 4.600461181640625 0.0704999999999999 4.493211181640625 0.13049999999999984 Q 4.385961181640625 0.1904999999999999 4.3244611816406255 0.2962499999999999 Q 4.262961181640625 0.4019999999999999 4.262961181640625 0.5324999999999999 Q 4.262961181640625 0.6629999999999998 4.3244611816406255 0.7687499999999998 Q 4.385961181640625 0.8744999999999998 4.493211181640625 0.9344999999999999 Q 4.600461181640625 0.9944999999999999 4.732461181640625 0.9944999999999999 Q 4.864461181640626 0.9944999999999999 4.970961181640625 0.9344999999999999 M 6.413980224609375 0.00749999999999984 L 6.413980224609375 1.0574999999999999 L 6.3509802246093745 1.0574999999999999 L 5.635480224609375 0.14549999999999985 L 5.635480224609375 1.0574999999999999 L 5.558980224609375 1.0574999999999999 L 5.558980224609375 0.00749999999999984 L 5.6234802246093745 0.00749999999999984 L 6.337480224609375 0.9194999999999999 L 6.337480224609375 0.00749999999999984 L 6.413980224609375 0.00749999999999984 M 7.44451904296875 0.7619999999999999 L 6.83551904296875 0.7619999999999999 L 6.70201904296875 1.0574999999999999 L 6.619519042968751 1.0574999999999999 L 7.10251904296875 0.00749999999999984 L 7.179019042968751 0.00749999999999984 L 7.66201904296875 1.0574999999999999 L 7.579519042968751 1.0574999999999999 L 7.44451904296875 0.7619999999999999 M 7.416019042968751 0.6974999999999999 L 7.140019042968751 0.09149999999999991 L 6.86551904296875 0.6974999999999999 L 7.416019042968751 0.6974999999999999 M 8.596544677734377 1.0574999999999999 L 8.346044677734376 0.7064999999999999 Q 8.290544677734376 0.7139999999999999 8.244044677734376 0.7139999999999999 L 7.944044677734376 0.7139999999999999 L 7.944044677734376 1.0574999999999999 L 7.867544677734376 1.0574999999999999 L 7.867544677734376 0.00749999999999984 L 8.244044677734376 0.00749999999999984 Q 8.442044677734376 0.00749999999999984 8.554544677734375 0.10124999999999984 Q 8.667044677734376 0.19499999999999984 8.667044677734376 0.3614999999999998 Q 8.667044677734376 0.4859999999999999 8.603294677734375 0.5707499999999999 Q 8.539544677734376 0.6554999999999999 8.421044677734375 0.69 L 8.683544677734377 1.0574999999999999 L 8.596544677734377 1.0574999999999999 M 8.244044677734376 0.6464999999999999 Q 8.412044677734375 0.6464999999999999 8.500544677734377 0.5722499999999999 Q 8.589044677734377 0.4979999999999999 8.589044677734377 0.3614999999999998 Q 8.589044677734377 0.22499999999999987 8.500544677734377 0.15074999999999983 Q 8.412044677734375 0.0764999999999999 8.244044677734376 0.0764999999999999 L 7.944044677734376 0.0764999999999999 L 7.944044677734376 0.6464999999999999 L 8.244044677734376 0.6464999999999999 M 9.271486083984376 0.696 L 9.271486083984376 1.0574999999999999 L 9.194986083984377 1.0574999999999999 L 9.194986083984377 0.696 L 8.771986083984377 0.00749999999999984 L 8.855986083984376 0.00749999999999984 L 9.235486083984377 0.6255 L 9.614986083984377 0.00749999999999984 L 9.694486083984376 0.00749999999999984 L 9.271486083984376 0.696" fill="#0094ff" fill-rule="nonzero"></path></g><g><path d=" M 0.1875 1.4593499999999997 L 0.003 1.4593499999999997 L 0.003 1.4113499999999997 L 0.4275 1.4113499999999997 L 0.4275 1.4593499999999997 L 0.243 1.4593499999999997 L 0.243 1.9363499999999998 L 0.1875 1.9363499999999998 L 0.1875 1.4593499999999997 M 0.96223095703125 1.4113499999999997 L 0.96223095703125 1.9363499999999998 L 0.9074809570312501 1.9363499999999998 L 0.9074809570312501 1.6940999999999997 L 0.5789809570312501 1.6940999999999997 L 0.5789809570312501 1.9363499999999998 L 0.52348095703125 1.9363499999999998 L 0.52348095703125 1.4113499999999997 L 0.5789809570312501 1.4113499999999997 L 0.5789809570312501 1.6453499999999999 L 0.9074809570312501 1.6453499999999999 L 0.9074809570312501 1.4113499999999997 L 0.96223095703125 1.4113499999999997 M 1.51197216796875 1.8883499999999998 L 1.51197216796875 1.9363499999999998 L 1.1407221679687498 1.9363499999999998 L 1.1407221679687498 1.4113499999999997 L 1.50072216796875 1.4113499999999997 L 1.50072216796875 1.4593499999999997 L 1.19622216796875 1.4593499999999997 L 1.19622216796875 1.6460999999999997 L 1.46772216796875 1.6460999999999997 L 1.46772216796875 1.6933499999999997 L 1.19622216796875 1.6933499999999997 L 1.19622216796875 1.8883499999999998 L 1.51197216796875 1.8883499999999998 M 2.574744873046875 1.4113499999999997 L 2.397744873046875 1.9363499999999998 L 2.339244873046875 1.9363499999999998 L 2.185494873046875 1.4885999999999997 L 2.030994873046875 1.9363499999999998 L 1.973244873046875 1.9363499999999998 L 1.796244873046875 1.4113499999999997 L 1.8532448730468751 1.4113499999999997 L 2.004744873046875 1.86285 L 2.161494873046875 1.4113499999999997 L 2.2132448730468752 1.4113499999999997 L 2.367744873046875 1.8650999999999998 L 2.521494873046875 1.4113499999999997 L 2.574744873046875 1.4113499999999997 M 2.7671400146484375 1.9059749999999998 Q 2.7037650146484378 1.8710999999999998 2.6681400146484378 1.8103499999999997 Q 2.6325150146484377 1.7495999999999998 2.6325150146484377 1.6738499999999998 Q 2.6325150146484377 1.5980999999999999 2.6681400146484378 1.5373499999999998 Q 2.7037650146484378 1.4766 2.7671400146484375 1.4417249999999997 Q 2.8305150146484377 1.40685 2.9085150146484375 1.40685 Q 2.986515014648438 1.40685 3.0491400146484375 1.44135 Q 3.1117650146484377 1.4758499999999999 3.1477650146484377 1.5369749999999998 Q 3.1837650146484378 1.5980999999999999 3.1837650146484378 1.6738499999999998 Q 3.1837650146484378 1.7495999999999998 3.1477650146484377 1.8107249999999997 Q 3.1117650146484377 1.8718499999999998 3.0491400146484375 1.9063499999999998 Q 2.986515014648438 1.9408499999999997 2.9085150146484375 1.9408499999999997 Q 2.8305150146484377 1.9408499999999997 2.7671400146484375 1.9059749999999998 M 3.0210150146484374 1.863225 Q 3.0712650146484375 1.8350999999999997 3.0997650146484377 1.7852249999999998 Q 3.128265014648438 1.7353499999999997 3.128265014648438 1.6738499999999998 Q 3.128265014648438 1.6123499999999997 3.0997650146484377 1.5624749999999998 Q 3.0712650146484375 1.5125999999999997 3.0210150146484374 1.4844749999999998 Q 2.9707650146484377 1.4563499999999998 2.9085150146484375 1.4563499999999998 Q 2.846265014648438 1.4563499999999998 2.7956400146484377 1.4844749999999998 Q 2.7450150146484376 1.5125999999999997 2.716140014648438 1.5624749999999998 Q 2.6872650146484376 1.6123499999999997 2.6872650146484376 1.6738499999999998 Q 2.6872650146484376 1.7353499999999997 2.716140014648438 1.7852249999999998 Q 2.7450150146484376 1.8350999999999997 2.7956400146484377 1.863225 Q 2.846265014648438 1.8913499999999999 2.9085150146484375 1.8913499999999999 Q 2.9707650146484377 1.8913499999999999 3.0210150146484374 1.863225 M 3.6742569580078124 1.9363499999999998 L 3.5542569580078123 1.7675999999999998 Q 3.5340069580078124 1.7698499999999997 3.5122569580078125 1.7698499999999997 L 3.3712569580078124 1.7698499999999997 L 3.3712569580078124 1.9363499999999998 L 3.3157569580078126 1.9363499999999998 L 3.3157569580078126 1.4113499999999997 L 3.5122569580078125 1.4113499999999997 Q 3.6127569580078123 1.4113499999999997 3.669756958007812 1.4593499999999997 Q 3.7267569580078126 1.5073499999999997 3.7267569580078126 1.5913499999999998 Q 3.7267569580078126 1.6528499999999997 3.6956319580078123 1.6952249999999998 Q 3.6645069580078125 1.7375999999999998 3.6067569580078125 1.7563499999999999 L 3.7350069580078125 1.9363499999999998 L 3.6742569580078124 1.9363499999999998 M 3.6300069580078125 1.6880999999999997 Q 3.6712569580078123 1.6535999999999997 3.6712569580078123 1.5913499999999998 Q 3.6712569580078123 1.5275999999999998 3.6300069580078125 1.4934749999999997 Q 3.5887569580078122 1.4593499999999997 3.5107569580078124 1.4593499999999997 L 3.3712569580078124 1.4593499999999997 L 3.3712569580078124 1.7226 L 3.5107569580078124 1.7226 Q 3.5887569580078122 1.7226 3.6300069580078125 1.6880999999999997 M 3.865523803710938 1.4113499999999997 L 4.0792738037109375 1.4113499999999997 Q 4.162523803710938 1.4113499999999997 4.226273803710938 1.4447249999999998 Q 4.2900238037109375 1.4780999999999997 4.325273803710938 1.5377249999999998 Q 4.3605238037109375 1.5973499999999998 4.3605238037109375 1.6738499999999998 Q 4.3605238037109375 1.7503499999999999 4.325273803710938 1.8099749999999997 Q 4.2900238037109375 1.8695999999999997 4.226273803710938 1.9029749999999999 Q 4.162523803710938 1.9363499999999998 4.0792738037109375 1.9363499999999998 L 3.865523803710938 1.9363499999999998 L 3.865523803710938 1.4113499999999997 M 4.076273803710937 1.8883499999999998 Q 4.145273803710937 1.8883499999999998 4.1970238037109375 1.8609749999999998 Q 4.248773803710938 1.8335999999999997 4.277273803710938 1.7852249999999998 Q 4.305773803710938 1.7368499999999998 4.305773803710938 1.6738499999999998 Q 4.305773803710938 1.6108499999999997 4.277273803710938 1.5624749999999998 Q 4.248773803710938 1.5140999999999998 4.1970238037109375 1.4867249999999999 Q 4.145273803710937 1.4593499999999997 4.076273803710937 1.4593499999999997 L 3.9210238037109377 1.4593499999999997 L 3.9210238037109377 1.8883499999999998 L 4.076273803710937 1.8883499999999998 M 4.696533325195313 1.4113499999999997 L 4.752033325195313 1.4113499999999997 L 4.752033325195313 1.9363499999999998 L 4.696533325195313 1.9363499999999998 L 4.696533325195313 1.4113499999999997 M 4.963159790039064 1.9220999999999997 Q 4.909534790039063 1.9033499999999999 4.880284790039063 1.8725999999999998 L 4.902034790039064 1.8298499999999998 Q 4.930534790039063 1.8583499999999997 4.977784790039063 1.8759749999999997 Q 5.025034790039063 1.8935999999999997 5.075284790039063 1.8935999999999997 Q 5.145784790039063 1.8935999999999997 5.181034790039064 1.8677249999999999 Q 5.216284790039063 1.8418499999999998 5.216284790039063 1.8005999999999998 Q 5.216284790039063 1.7691 5.197159790039064 1.7503499999999999 Q 5.178034790039064 1.7315999999999998 5.150284790039064 1.7214749999999999 Q 5.122534790039063 1.7113499999999997 5.073034790039063 1.6993499999999997 Q 5.013784790039064 1.6843499999999998 4.978534790039063 1.6704749999999997 Q 4.943284790039064 1.6565999999999999 4.918159790039064 1.6280999999999999 Q 4.893034790039064 1.5995999999999997 4.893034790039064 1.5508499999999998 Q 4.893034790039064 1.5110999999999999 4.9140347900390635 1.4784749999999998 Q 4.935034790039063 1.4458499999999999 4.978534790039063 1.4263499999999998 Q 5.022034790039063 1.40685 5.086534790039064 1.40685 Q 5.131534790039064 1.40685 5.174659790039064 1.4192249999999997 Q 5.2177847900390635 1.4315999999999998 5.249284790039064 1.45335 L 5.230534790039064 1.4975999999999998 Q 5.197534790039064 1.4758499999999999 5.160034790039064 1.464975 Q 5.122534790039063 1.4540999999999997 5.086534790039064 1.4540999999999997 Q 5.017534790039064 1.4540999999999997 4.9826597900390635 1.4807249999999998 Q 4.947784790039064 1.5073499999999997 4.947784790039064 1.5493499999999998 Q 4.947784790039064 1.5808499999999999 4.966909790039064 1.5999749999999997 Q 4.986034790039064 1.6190999999999998 5.014909790039064 1.629225 Q 5.043784790039064 1.6393499999999999 5.092534790039063 1.6513499999999999 Q 5.150284790039064 1.6655999999999997 5.185909790039063 1.6794749999999998 Q 5.221534790039064 1.6933499999999997 5.246284790039064 1.7214749999999999 Q 5.271034790039064 1.7495999999999998 5.271034790039064 1.7975999999999999 Q 5.271034790039064 1.8373499999999998 5.249659790039064 1.8699749999999997 Q 5.228284790039064 1.9025999999999998 5.184034790039064 1.9217249999999997 Q 5.139784790039063 1.9408499999999997 5.075284790039063 1.9408499999999997 Q 5.016784790039064 1.9408499999999997 4.963159790039064 1.9220999999999997 M 5.783295410156252 1.7548499999999998 L 5.783295410156252 1.9363499999999998 L 5.728545410156252 1.9363499999999998 L 5.728545410156252 1.7548499999999998 L 5.518545410156252 1.4113499999999997 L 5.577795410156251 1.4113499999999997 L 5.757795410156252 1.7060999999999997 L 5.937795410156252 1.4113499999999997 L 5.993295410156252 1.4113499999999997 L 5.783295410156252 1.7548499999999998 M 6.152655761718752 1.9059749999999998 Q 6.089280761718752 1.8710999999999998 6.053655761718752 1.8103499999999997 Q 6.018030761718752 1.7495999999999998 6.018030761718752 1.6738499999999998 Q 6.018030761718752 1.5980999999999999 6.053655761718752 1.5373499999999998 Q 6.089280761718752 1.4766 6.152655761718752 1.4417249999999997 Q 6.216030761718752 1.40685 6.294030761718752 1.40685 Q 6.372030761718752 1.40685 6.434655761718752 1.44135 Q 6.497280761718752 1.4758499999999999 6.533280761718752 1.5369749999999998 Q 6.569280761718752 1.5980999999999999 6.569280761718752 1.6738499999999998 Q 6.569280761718752 1.7495999999999998 6.533280761718752 1.8107249999999997 Q 6.497280761718752 1.8718499999999998 6.434655761718752 1.9063499999999998 Q 6.372030761718752 1.9408499999999997 6.294030761718752 1.9408499999999997 Q 6.216030761718752 1.9408499999999997 6.152655761718752 1.9059749999999998 M 6.406530761718752 1.863225 Q 6.456780761718752 1.8350999999999997 6.485280761718752 1.7852249999999998 Q 6.513780761718752 1.7353499999999997 6.513780761718752 1.6738499999999998 Q 6.513780761718752 1.6123499999999997 6.485280761718752 1.5624749999999998 Q 6.456780761718752 1.5125999999999997 6.406530761718752 1.4844749999999998 Q 6.356280761718752 1.4563499999999998 6.294030761718752 1.4563499999999998 Q 6.231780761718752 1.4563499999999998 6.181155761718752 1.4844749999999998 Q 6.130530761718752 1.5125999999999997 6.101655761718752 1.5624749999999998 Q 6.072780761718752 1.6123499999999997 6.072780761718752 1.6738499999999998 Q 6.072780761718752 1.7353499999999997 6.101655761718752 1.7852249999999998 Q 6.130530761718752 1.8350999999999997 6.181155761718752 1.863225 Q 6.231780761718752 1.8913499999999999 6.294030761718752 1.8913499999999999 Q 6.356280761718752 1.8913499999999999 6.406530761718752 1.863225 M 6.753772705078127 1.8823499999999997 Q 6.696772705078128 1.8238499999999997 6.696772705078128 1.7120999999999997 L 6.696772705078128 1.4113499999999997 L 6.752272705078127 1.4113499999999997 L 6.752272705078127 1.7098499999999999 Q 6.752272705078127 1.8013499999999998 6.793522705078127 1.8463499999999997 Q 6.8347727050781275 1.8913499999999999 6.912772705078127 1.8913499999999999 Q 6.991522705078127 1.8913499999999999 7.032772705078127 1.8463499999999997 Q 7.074022705078127 1.8013499999999998 7.074022705078127 1.7098499999999999 L 7.074022705078127 1.4113499999999997 L 7.128022705078127 1.4113499999999997 L 7.128022705078127 1.7120999999999997 Q 7.128022705078127 1.8238499999999997 7.071397705078128 1.8823499999999997 Q 7.014772705078127 1.9408499999999997 6.912772705078127 1.9408499999999997 Q 6.8107727050781275 1.9408499999999997 6.753772705078127 1.8823499999999997 M 7.661266845703127 1.9363499999999998 L 7.541266845703127 1.7675999999999998 Q 7.5210168457031275 1.7698499999999997 7.4992668457031275 1.7698499999999997 L 7.3582668457031275 1.7698499999999997 L 7.3582668457031275 1.9363499999999998 L 7.302766845703127 1.9363499999999998 L 7.302766845703127 1.4113499999999997 L 7.4992668457031275 1.4113499999999997 Q 7.599766845703128 1.4113499999999997 7.656766845703127 1.4593499999999997 Q 7.713766845703128 1.5073499999999997 7.713766845703128 1.5913499999999998 Q 7.713766845703128 1.6528499999999997 7.682641845703127 1.6952249999999998 Q 7.651516845703128 1.7375999999999998 7.5937668457031275 1.7563499999999999 L 7.722016845703127 1.9363499999999998 L 7.661266845703127 1.9363499999999998 M 7.6170168457031275 1.6880999999999997 Q 7.658266845703127 1.6535999999999997 7.658266845703127 1.5913499999999998 Q 7.658266845703127 1.5275999999999998 7.6170168457031275 1.4934749999999997 Q 7.575766845703128 1.4593499999999997 7.4977668457031275 1.4593499999999997 L 7.3582668457031275 1.4593499999999997 L 7.3582668457031275 1.7226 L 7.4977668457031275 1.7226 Q 7.575766845703128 1.7226 7.6170168457031275 1.6880999999999997 M 7.885158691406253 1.9220999999999997 Q 7.8315336914062526 1.9033499999999999 7.802283691406252 1.8725999999999998 L 7.824033691406253 1.8298499999999998 Q 7.8525336914062525 1.8583499999999997 7.8997836914062525 1.8759749999999997 Q 7.9470336914062525 1.8935999999999997 7.997283691406253 1.8935999999999997 Q 8.067783691406254 1.8935999999999997 8.103033691406253 1.8677249999999999 Q 8.138283691406253 1.8418499999999998 8.138283691406253 1.8005999999999998 Q 8.138283691406253 1.7691 8.119158691406252 1.7503499999999999 Q 8.100033691406253 1.7315999999999998 8.072283691406252 1.7214749999999999 Q 8.044533691406253 1.7113499999999997 7.9950336914062525 1.6993499999999997 Q 7.935783691406253 1.6843499999999998 7.9005336914062525 1.6704749999999997 Q 7.865283691406253 1.6565999999999999 7.840158691406253 1.6280999999999999 Q 7.815033691406253 1.5995999999999997 7.815033691406253 1.5508499999999998 Q 7.815033691406253 1.5110999999999999 7.836033691406253 1.4784749999999998 Q 7.857033691406253 1.4458499999999999 7.9005336914062525 1.4263499999999998 Q 7.944033691406252 1.40685 8.008533691406253 1.40685 Q 8.053533691406253 1.40685 8.096658691406253 1.4192249999999997 Q 8.139783691406253 1.4315999999999998 8.171283691406252 1.45335 L 8.152533691406253 1.4975999999999998 Q 8.119533691406252 1.4758499999999999 8.082033691406252 1.464975 Q 8.044533691406253 1.4540999999999997 8.008533691406253 1.4540999999999997 Q 7.939533691406253 1.4540999999999997 7.904658691406253 1.4807249999999998 Q 7.869783691406253 1.5073499999999997 7.869783691406253 1.5493499999999998 Q 7.869783691406253 1.5808499999999999 7.888908691406253 1.5999749999999997 Q 7.908033691406253 1.6190999999999998 7.936908691406253 1.629225 Q 7.965783691406253 1.6393499999999999 8.014533691406253 1.6513499999999999 Q 8.072283691406252 1.6655999999999997 8.107908691406253 1.6794749999999998 Q 8.143533691406253 1.6933499999999997 8.168283691406252 1.7214749999999999 Q 8.193033691406253 1.7495999999999998 8.193033691406253 1.7975999999999999 Q 8.193033691406253 1.8373499999999998 8.171658691406252 1.8699749999999997 Q 8.150283691406253 1.9025999999999998 8.106033691406253 1.9217249999999997 Q 8.061783691406253 1.9408499999999997 7.997283691406253 1.9408499999999997 Q 7.938783691406253 1.9408499999999997 7.885158691406253 1.9220999999999997" fill="#80caff" fill-rule="nonzero"></path></g><g clip-path="url(#SvgjsClipPath1001)"><g clip-path="url(#SvgjsClipPath100006ef2cdc-0ce6-409a-ba79-e010436af60a)"><path d=" M -2.078218734047742 0.9148614214321842 C -2.076271282554144 0.832055779414055 -2.0689412978467305 0.7494644024291126 -2.0562751741734537 0.6676100425669439 C -2.0450882498580767 0.5970584897862687 -2.0290824803018896 0.5273559449448142 -2.0083702195183113 0.4589916916494211 C -2.070183064234623 0.4664092330153785 -2.1294203737544186 0.47496000986779596 -2.186082148077693 0.48464402220668523 C -2.2528400203713037 0.49577033425562433 -2.3168163146526837 0.5087510316460482 -2.377701966698244 0.5226589217072176 C -2.4077156399852813 0.5858367189104564 -2.4312225776034477 0.6519046757403603 -2.4478595454512586 0.7198418963522353 C -2.4634827443911878 0.7834889812596708 -2.473003769027106 0.8484803233395966 -2.476293454020771 0.9139342287614447 Z" fill="#0094ff" transform="matrix(1,0,0,1,0,0)" fill-rule="evenodd"></path></g><g clip-path="url(#SvgjsClipPath100006ef2cdc-0ce6-409a-ba79-e010436af60a)"><path d=" M -2.0083702195183113 1.4767401799034134 C -2.029082177545107 1.4082710716398714 -2.045087830720842 1.3384657713379648 -2.0562751741734537 1.2678127647622892 C -2.0691231287447684 1.1859806201281398 -2.0764541838194837 1.1033771826666694 -2.078218734047742 1.0205613858970608 L -2.476293454020759 1.0205613858970608 C -2.47302628325711 1.086017499201056 -2.4635049458588507 1.151010976224002 -2.4478595454512586 1.2146537183062702 C -2.4311736921737745 1.2825762881088911 -2.407668486882658 1.3486393761077293 -2.3777019666982384 1.4118366929512938 C -2.3158891219819324 1.4256415616045999 -2.2520158491084215 1.438313194771446 -2.186082148077693 1.449851592451826 C -2.128596202491525 1.4603597760535916 -2.069358892971729 1.4693226385374563 -2.0083702195183113 1.4767401799034134 Z" fill="#004a80" transform="matrix(1,0,0,1,0,0)" fill-rule="evenodd"></path></g><g clip-path="url(#SvgjsClipPath100006ef2cdc-0ce6-409a-ba79-e010436af60a)"><path d=" M -1.701469445501846 1.9740245156461067 C -1.7281857719010651 1.9512886069966022 -1.7533773943345285 1.9268196950427892 -1.7768811160557547 1.9007762946572844 C -1.8302353299379812 1.8410933933279385 -1.8762050196050424 1.7752000458367747 -1.913796567102374 1.7045205126830063 C -1.9246138149277232 1.6844313381502087 -1.935121998529489 1.6634149709466657 -1.9447029894605208 1.6427076679667003 C -1.9542839803915468 1.6220003649867354 -1.9601562006395974 1.607783410701988 -1.967264677781977 1.5901667499578371 C -2.034640678522743 1.5827492085918857 -2.100780422369192 1.573786346108021 -2.16506578087415 1.5635872267298274 C -2.2138979282000317 1.5558606211402863 -2.2611847544080126 1.5475158871035837 -2.3069262594980797 1.538243960396147 C -2.292400240989749 1.5601875202704356 -2.277565158257834 1.5815129516975621 -2.26180288285518 1.6019111904539436 C -2.233993096119127 1.6378590301244849 -2.203954835764404 1.6720262609746963 -2.171865193792952 1.704211448459434 C -2.093416573656394 1.7828611250746094 -2.0028393934303548 1.848393923671332 -1.903597447724192 1.8983037808686376 C -1.83903550546493 1.9304987094444939 -1.771293454397267 1.9558760833154056 -1.70146944550184 1.974024515646113 Z" fill="#80caff" transform="matrix(1,0,0,1,0,0)" fill-rule="evenodd"></path></g><g clip-path="url(#SvgjsClipPath100006ef2cdc-0ce6-409a-ba79-e010436af60a)"><path d=" M -1.8467296305851677 1.6003658693360308 L -1.843020859902192 1.6087106033727334 C -1.8359123827598185 1.6232366218810643 -1.8284948413938609 1.6396170257308862 -1.8201501073571524 1.6535249157920555 C -1.778211584132226 1.7337551125686628 -1.7237509982609773 1.8067865495607673 -1.6588185826475925 1.8698698722991316 C -1.6097918302986172 1.9168297180020737 -1.5534165341919381 1.955457235704801 -1.4919239019135602 1.9842236350243003 L -1.4919239019135602 1.617673465856598 C -1.5557971747870831 1.617673465856598 -1.61853721217414 1.6159221019229646 -1.6801440140747252 1.6124193740557091 C -1.7363937027665641 1.6090196675963115 -1.7920252630112417 1.6053108969133358 -1.8467296305851677 1.6003658693360308 Z" fill="#004a80" transform="matrix(1,0,0,1,0,0)" fill-rule="evenodd"></path></g><g clip-path="url(#SvgjsClipPath100006ef2cdc-0ce6-409a-ba79-e010436af60a)"><path d=" M -1.9712825126885245 1.021797642791396 C -1.9693271746865313 1.1031039057002503 -1.9616849266582232 1.1841736989736127 -1.9484117601434907 1.2644130583029152 C -1.9358935303918559 1.3408642928096146 -1.916974069020386 1.416128598156198 -1.8918530072280677 1.4894118130702596 C -1.8259193061973393 1.4955930975418936 -1.7586463268644363 1.5004351037113355 -1.6900340692293292 1.5039378315785905 C -1.6245124538300417 1.5072345166301253 -1.558475731391456 1.5092949447873365 -1.491923901913566 1.5101191160502188 L -1.491923901913566 1.0217976427913897 Z" fill="#0094ff" transform="matrix(1,0,0,1,0,0)" fill-rule="evenodd"></path></g><g clip-path="url(#SvgjsClipPath100006ef2cdc-0ce6-409a-ba79-e010436af60a)"><path d=" M -1.8918530072280797 0.44724725115331454 C -1.9169378795144105 0.5204357975834392 -1.9358567536586704 0.5955943850308354 -1.9484117601434967 0.6719369416970931 C -1.9616702919287903 0.7522820249031542 -1.9693123958592418 0.8334535612455292 -1.9712825126885363 0.9148614214321842 L -1.491923901913578 0.9148614214321842 L -1.491923901913578 0.42653994817335533 C -1.5583727099836104 0.42653994817335533 -1.6245124538300595 0.42932152618559155 -1.689725005005757 0.4324121684214057 C -1.7549375561814546 0.4355028106572257 -1.8250951349344633 0.44106596668168635 -1.8918530072280797 0.44724725115331454 Z" fill="#004a80" transform="matrix(1,0,0,1,0,0)" fill-rule="evenodd"></path></g><g clip-path="url(#SvgjsClipPath100006ef2cdc-0ce6-409a-ba79-e010436af60a)"><path d=" M -1.8467296305851677 0.3356750664403877 C -1.7920252630112417 0.3313481673102444 -1.7363937027665641 0.32763939662726865 -1.6801440140747252 0.32485781861503243 C -1.6183311693584135 0.3219732191949389 -1.5555911319713625 0.320118833853448 -1.491923901913566 0.3192946625905658 L -1.491923901913566 -0.04725550657713662 C -1.553427137563336 -0.018375883054803813 -1.6098007483532655 0.020354875469388634 -1.6588185826475925 0.06740732037160435 C -1.7237509982609773 0.13049064310998001 -1.778211584132226 0.20352208010207873 -1.8201501073571524 0.28375227687869187 C -1.8278767129466935 0.2979692311634391 -1.8352942543126507 0.31280431389534796 -1.8427117956786083 0.3282575250744303 Z" fill="#80caff" transform="matrix(1,0,0,1,0,0)" fill-rule="evenodd"></path></g><g clip-path="url(#SvgjsClipPath100006ef2cdc-0ce6-409a-ba79-e010436af60a)"><path d=" M -1.029563823435585 0.3356750664403877 L -1.0332725941185668 0.32763939662726865 C -1.0406901354845242 0.3121861854481922 -1.0484167410740652 0.2967329742691158 -1.0561433466636065 0.28282508420794644 C -1.0980007449245819 0.20254391937260918 -1.152470462858977 0.12950023631881766 -1.2174748713731605 0.06648012770087665 C -1.2664927056674933 0.01942768279864912 -1.3228663164574226 -0.019303075725543323 -1.3843695521071868 -0.04818269924788203 L -1.3843695521071868 0.31836746991982634 C -1.3204962792336699 0.31836746991982634 -1.2577562418466188 0.32022185526131713 -1.1961494399460337 0.3239306259442929 C -1.1398997512541946 0.32763939662726277 -1.0833409983387776 0.3313481673102444 -1.029563823435585 0.3356750664403877 Z" fill="#0094ff" transform="matrix(1,0,0,1,0,0)" fill-rule="evenodd"></path></g><g clip-path="url(#SvgjsClipPath100006ef2cdc-0ce6-409a-ba79-e010436af60a)"><path d=" M -0.9050109413322285 0.9148614214321842 C -0.906925803269228 0.8334369102779685 -0.9146722418521971 0.7522542339284528 -0.9281907581008402 0.6719369416971048 C -0.9405002582234911 0.5955736322173332 -0.9593187400578311 0.5204031031318095 -0.9844404467926791 0.4472472511533204 C -1.0502711264155442 0.44106596668168635 -1.1176471271563224 0.43581187488079765 -1.186259384791418 0.4324121684214057 C -1.2548716424265134 0.4290124619620078 -1.3179207440371483 0.42715807662051697 -1.384369552107181 0.42653994817334945 L -1.384369552107181 0.9148614214321783 Z" fill="#80caff" transform="matrix(1,0,0,1,0,0)" fill-rule="evenodd"></path></g><g clip-path="url(#SvgjsClipPath100006ef2cdc-0ce6-409a-ba79-e010436af60a)"><path d=" M -0.984440446792685 1.4894118130702596 C -0.9593187400578311 1.4162559610917644 -0.9405002582234911 1.341085432006241 -0.9281907581008402 1.264722122526475 C -0.9146722418522031 1.1844048302951213 -0.906925803269234 1.1032221539456115 -0.9050109413322402 1.0217976427913897 L -1.3843695521071986 1.0217976427913897 L -1.3843695521071986 1.5101191160502188 C -1.3179207440371659 1.5101191160502188 -1.251781000190717 1.5073375380379828 -1.1865684490150195 1.5039378315785905 C -1.1213558978393219 1.5005381251191925 -1.0502711264155502 1.4955930975418936 -0.984440446792685 1.4894118130702596 Z" fill="#004a80" transform="matrix(1,0,0,1,0,0)" fill-rule="evenodd"></path></g><g clip-path="url(#SvgjsClipPath100006ef2cdc-0ce6-409a-ba79-e010436af60a)"><path d=" M -1.3843695521071868 1.983605506577133 C -1.3228769198288206 1.9548391072576337 -1.2665016237221416 1.9162115895549063 -1.2174748713731605 1.8692517438519638 C -1.1525424557597814 1.8061684211136 -1.0980818698885269 1.7331369841215012 -1.0561433466636065 1.6529067873448882 C -1.0481076768504816 1.6380717046129734 -1.0403810712609463 1.6220003649867354 -1.0332725941185668 1.608092474925566 L -1.029563823435585 1.599747740888863 C -1.084268191009517 1.6043837042425904 -1.1398997512541946 1.608092474925566 -1.1961494399460337 1.610874052937802 C -1.2579622846623453 1.6135526095421753 -1.3207023220493963 1.615303973475803 -1.3843695521071868 1.6161281447386848 Z" fill="#80caff" transform="matrix(1,0,0,1,0,0)" fill-rule="evenodd"></path></g><g clip-path="url(#SvgjsClipPath100006ef2cdc-0ce6-409a-ba79-e010436af60a)"><path d=" M -0.9077925193444587 1.5892395572870974 C -0.9149009964868324 1.6068562180312425 -0.9226276020763735 1.6244728787753937 -0.9303542076659146 1.6414714110723714 C -0.9406563484519657 1.6633119495388025 -0.9509584892380165 1.6839162311109042 -0.9612606300240676 1.7032842557886827 C -0.998808332955611 1.773990598757277 -1.04478156812167 1.8398890283971174 -1.0981760810706924 1.8995400377629608 C -1.1218367414593877 1.9254316785126657 -1.1470185536981543 1.9498910617118055 -1.1735877516245836 1.9727882587517835 C -1.1035163653675029 1.9543833681953116 -1.0355640493986362 1.9286940780119575 -0.9708416209550936 1.896140331303557 C -0.8716468852090191 1.8461528388174662 -0.7810814668621138 1.780628549967402 -0.7025738748863222 1.7020479988943538 C -0.6704144104290954 1.6700179647099613 -0.6404691905322009 1.6358391102759184 -0.6129452500476835 1.599747740888863 C -0.5968739104214456 1.579349502132482 -0.5820388276895307 1.558024070705355 -0.5675128091811998 1.536080510831067 C -0.6132543142712674 1.545352437538515 -0.6602320762556642 1.5536971715752177 -0.7096823520287074 1.561423777164753 C -0.7742767747572434 1.5728591534372756 -0.8404165186036865 1.5818220159211402 -0.9077925193444587 1.5892395572870974 Z" fill="#0094ff" transform="matrix(1,0,0,1,0,0)" fill-rule="evenodd"></path></g><g clip-path="url(#SvgjsClipPath100006ef2cdc-0ce6-409a-ba79-e010436af60a)"><path d=" M -0.7980747199730167 1.021797642791396 C -0.799853211012814 1.104612672699398 -0.8071841832465982 1.187215176742142 -0.8200182798473052 1.2690490216566124 C -0.831058118558478 1.3397305020907786 -0.8470661015028444 1.4095459631900775 -0.8679232345024475 1.4779764367977428 C -0.8061103897861359 1.4705588954317852 -0.7468730802663399 1.4620081185793619 -0.6902113059430657 1.4523241062404786 C -0.623762497873033 1.4408887299679556 -0.5594771393680749 1.4282170968011156 -0.4982824230989309 1.4143092067399463 C -0.4683688268004431 1.3511220309451066 -0.4449653456598548 1.2850537965747684 -0.42843390856950014 1.2171262320949165 C -0.4127661453226166 1.1534878684211458 -0.4032444917363214 1.0884922330712317 -0.39999999999999414 1.0230338996857133 Z" fill="#80caff" transform="matrix(1,0,0,1,0,0)" fill-rule="evenodd"></path></g><g clip-path="url(#SvgjsClipPath100006ef2cdc-0ce6-409a-ba79-e010436af60a)"><path d=" M -0.8669960418317078 0.4599188843201665 C -0.846138908832105 0.5283493579278257 -0.8301309258877325 0.5981648190271307 -0.8190910871765658 0.6688462994612848 C -0.8062569905758585 0.7506801443757611 -0.7989260183420746 0.8332826484185053 -0.7971475273022772 0.9160976783265133 L -0.39907280732925443 0.9160976783265133 C -0.4023624923229132 0.8506437729046652 -0.41188351695883174 0.7856524308247395 -0.42750671589875466 0.7220053459173098 C -0.44414368374656554 0.6540681253054289 -0.4676506213647378 0.5880001684755252 -0.4976642946517693 0.5248223712722863 C -0.5594771393680749 0.5109144812111169 -0.6228353052022935 0.4979337838206871 -0.6892841132723262 0.486807471771754 C -0.7473881873056503 0.476505330985703 -0.806625496825446 0.46754246850183856 -0.8669960418317078 0.4599188843201665 Z" fill="#004a80" transform="matrix(1,0,0,1,0,0)" fill-rule="evenodd"></path></g><g clip-path="url(#SvgjsClipPath100006ef2cdc-0ce6-409a-ba79-e010436af60a)"><path d=" M -1.1742058800717512 -0.03767451564611054 C -1.1474895536725436 -0.014938606996605888 -1.1222979312390804 0.009530304957207102 -1.09879420951786 0.03557370534270611 C -1.0453724302987 0.09509054991562207 -0.9993956733466365 0.16089024270932145 -0.9618787584712349 0.23152042309340637 C -0.9510615106458797 0.25160959762620394 -0.9405533270441082 0.2726259648297528 -0.9309723361130822 0.29333326780971797 C -0.9232457305235411 0.3103318001067014 -0.9155191249339998 0.3279484608508465 -0.9084106477916263 0.34556512159499164 C -0.8410346470508541 0.352982662960949 -0.7752039674279829 0.3618425040369561 -0.7109186089230248 0.3721446448230071 C -0.6620864615971431 0.3798712504125482 -0.6144905711655788 0.3882159844492451 -0.5687490660755112 0.39717884693310956 C -0.5832750845838424 0.37554435128240493 -0.598110167315757 0.3542189198552782 -0.6138724427184112 0.3353660022168039 C -0.6415249065154005 0.2992886641290753 -0.6715719069650719 0.26511149179629323 -0.7038101317806396 0.23306574421131343 C -0.7822587519171973 0.15441606759613247 -0.8728359321432362 0.08888326899941565 -0.972077877849405 0.038973411802103994 C -1.0366029884214245 0.006459771673066272 -1.1043461555461473 -0.019228768765664504 -1.1742058800717512 -0.03767451564611054 Z" fill="#80caff" transform="matrix(1,0,0,1,0,0)" fill-rule="evenodd"></path></g><g clip-path="url(#SvgjsClipPath100006ef2cdc-0ce6-409a-ba79-e010436af60a)"><path d=" M -1.701469445501846 -0.03767451564611054 C -1.7715408317589325 -0.01926962508963841 -1.8394931477277991 0.006419665093715707 -1.904215576171336 0.03897341180211579 C -2.0034103119174165 0.08896090428820691 -2.0939757302643214 0.1544851931382709 -2.1724833222401077 0.23306574421131931 C -2.204657486070415 0.2651716876148176 -2.234700642108035 0.29934448709403727 -2.2624210113023357 0.3353660022168098 C -2.27818328670499 0.35576424097319115 -2.2933274336604885 0.3770896724003179 -2.3075443879452355 0.39717884693311545 C -2.2614938186315845 0.38821598444925104 -2.2148251208707714 0.3798712504125482 -2.165374845097728 0.37214464482301296 C -2.1010894865927696 0.36194552544481934 -2.034949742746321 0.35298266296095493 -1.9678828062291207 0.3455651215949975 C -1.960774329086747 0.32794846085085244 -1.953047723497206 0.3103318001067014 -1.9453211179076706 0.2930242035861342 C -1.9375945123181295 0.2757166070655728 -1.9246138149277057 0.25037334073188067 -1.9144146955495178 0.23121135886982852 C -1.8768977806741223 0.16058117848573766 -1.8309210237220586 0.09478148569203829 -1.7774992445028988 0.03526464111912825 C -1.753709477796144 0.009382385804989485 -1.7283161317697227 -0.014978710382957283 -1.7014694455018577 -0.03767451564611054 Z" fill="#004a80" transform="matrix(1,0,0,1,0,0)" fill-rule="evenodd"></path></g></g></g><defs><clipPath id="SvgjsClipPath1001"><path d=" M -2.476293454020759 -0.04725550657713662 h 2.076293454020759 v 2.030861013154273 h -2.076293454020759 Z"></path></clipPath><clipPath id="SvgjsClipPath100006ef2cdc-0ce6-409a-ba79-e010436af60a"><path d=" M -2.476293454020759 -0.04725550657713662 L -0.3999999999999999 -0.04725550657713662 L -0.3999999999999999 1.9836055065771365 L -2.476293454020759 1.9836055065771365 Z"></path></clipPath></defs></svg>