<svg width="19" height="21" viewBox="0 0 19 21" fill="none" xmlns="http://www.w3.org/2000/svg">
<path d="M15.3646 7.46164C15.3646 11.5826 11.9251 14.9233 7.68229 14.9233C3.43948 14.9233 0 11.5826 0 7.46164C0 3.34069 3.43948 0 7.68229 0C11.9251 0 15.3646 3.34069 15.3646 7.46164ZM2.34892 7.46164C2.34892 10.3226 4.73675 12.6418 7.68229 12.6418C10.6278 12.6418 13.0157 10.3226 13.0157 7.46164C13.0157 4.6007 10.6278 2.28145 7.68229 2.28145C4.73675 2.28145 2.34892 4.6007 2.34892 7.46164Z" fill="white"/>
<path d="M16.2376 20.073C16.7122 20.585 17.5229 20.6274 18.0484 20.1679C18.5739 19.7083 18.6152 18.9207 18.1406 18.4087L13.0054 12.8693C12.5307 12.3573 11.72 12.3149 11.1945 12.7744C10.669 13.234 10.6277 14.0216 11.1023 14.5336L16.2376 20.073Z" fill="white"/>
</svg>
